<svg xmlns="http://www.w3.org/2000/svg" id="Capa_1" width="252.09" height="96.19" viewBox="0 0 252.09 96.19"><defs><style>.cls-1{fill:#f3b317;}.cls-1,.cls-2{fill-rule:evenodd;}.cls-1,.cls-2,.cls-3{stroke-width:0px;}.cls-2,.cls-3{fill:#fff;}</style></defs><path class="cls-1" d="M72.94,64.05c32.2-15.22,53.79-35.58,48.36-45.75-5.24-9.85-33.91-6.58-65.13,7.1h.41c33.05-11.46,62.9-12.41,67.34-1.95,4.44,10.48-18.23,28.53-50.98,40.84v-.24Z"></path><path class="cls-1" d="M52.81,66.17c-.39-.3-.3-.49-1.14-.16-.15.06-.26.24-.27.4l-.17,1.33c-.02.82.66.93,1.05,1.47.06.08.06.36-.02.44-.61.7-2.1,1.84-2.43,2.34-.57.88-2.91,2.4-3.71,2.68-.41.21-.69.44-1.02.8-.08.11-.12.17-.31.25-.23.06-.19.05-.29.08l-.07.03-.68.19c-.09.03-.13.23-.13.3l.02,1.36-.02,1.87c.02.18.05.41.08.66-.02.32-.17.61-.35.9-.31.49-.62.85-1.16,1.17-.19.07-.4.25-.58.63-.09.33-.13.62-.17.94l.05.75c.08.24.21.36.5.42.25,0,.39.09.58.25.2.23.13.54.07.87-.12.33-.3.63-.46.79l-.72.85c-.1.18-.23.32-.31.52-.13.25-.17.43-.2.69l-.07,3.02.6,1.29.7.78.55.3c.24.16.49-.08.72.08.15.34.18.64.08,1.01-.2.28-.52.37-.85.47l-1.42.2c-.51.05-1.09.04-1.6-.02-.29-.07-.55-.18-.8-.37l-1.88-1.76-1.16-1.54c-.07-.1-.14-.25-.29-.42-.12-.12-.19-.14-.31-.23-.21-.19-.37-.36-.52-.58l-.46-.85-.43-.95c-.08-.44-.13-.86-.14-1.3.05-.12.08-.18.17-.28.2-.17.45-.47.8-.6.13-.07.22-.12.3-.23.04-.18.03-.33-.03-.55-.03-.16-.16-.31-.38-.36-.13-.03-.13-.03-.24-.11-.12-.08-.17-.11-.29-.23-.13-.18-.22-.35-.31-.58-.04-.17-.02-.39.06-.58.19-.19.42-.3.63-.44.13-.12.24-.12.25-.14.16-.1.1-.05.3-.14q.14-.08.31-.13c.27-.11.49-.27.64-.48.05-.23.06-.47-.01-.73-.09-.12-.1-.15-.2-.3-.43-.3-.82-.53-1.26-.91-.36-.43-.66-.86-.98-1.28l-.11-.17-.06-.14c-.13-.31-.29-.58-.47-.9-.08-.27-.11-.52-.07-.78l.66-4.94.05-6.66c0-.19,0-.15.04-.3l.43-1.59c.09-4.65.19-9.29.28-13.94l18.63,15.57Z"></path><path class="cls-2" d="M50.78,27.98C18.56,43.2-3.04,63.57,2.38,73.75c5.24,9.82,33.78,6.59,64.92-7h-.87c-32.47,10.98-61.51,11.75-65.87,1.44-4.41-10.4,17.88-28.26,50.22-40.56v.35Z"></path><path class="cls-1" d="M34.19,50.8c.08-.7.47-1.46.6-2.17.13-.67.25-1.44.18-1.97l-.46-1.74c-.23-.38-.18-.7-.68-1.13-1.06-.46-1.7-.6-3.11-1.53-1.6-1.26-3.22-2.47-4.82-3.78-.74-1.12-1.35-2.09-1.84-3.35-2.16-2.5-4.29-5.28-6.62-7.86-.19-.3-.28-.68-.33-1.08,0-.82.68-1.31.83-1.68.15-.72.29-1.43.36-2.17-.09-.89-.25-1.76-.27-2.68-.03-.37,0-.7.08-1.08.09-.27.25-.75.48-.93.31-.34.6-.64.86-1.08.41-.63,1.02-1.51,1.51-2.09.42-.42.81-.79,1.09-1.28.19-.4.07-.45.08-.73.04-.66.22-1.26.25-1.92-.08-.49-.09-.59-.08-.91-.03-.62-.13-1.19-.09-1.85.03-.61.1-1.09.25-1.58.23-.49.47-.96.76-1.42.35-.36,1.18-.74,1.43-1.08.26-.3.68-.71.97-1.02.35-.26.42-.47.76-.61,1-.36,1.69-.73,2.54-1.3.16-.11.31-.19.51-.24.6-.28.58-.33,1.21-.54.61.1,1.63.68,2.13.87.37.14.74.4,1.1.42.52-.03.91.07,1.46-.24.41.16.24.66.48.83.1.18.31.41.56.55.29.24.84.33,1.27.47.82.09,1.53.12,2.34.07.34-.01.68-.07,1.01-.25.39-.22.66-.49,1.08-.74.26-.13.71-.39,1.06-.42.26.07.86.44,1.28.58.34.17.66.13,1.05.28.37.22,1.3-.01,1.59.28.16.13.23,1.26.39,1.62.18.33.18.52.67.84.23.16,1.44-.19,1.84-.09.47.16.63.26,1.08.59,1.58,1.28.94,1.68,1.74,2.28.09.07.04.14.1.23,2.23,1.7,1.95.47,3.93.57,1.14.06,1.83.25,2.9.93,1.61,1.28,1.34,2.2,1.6,3.14.18,1.45.44,1.86,1.12,2.56,1.03.87,1.25.78,2.79,1.7,1.91,1.45,4.56,2.38,5.52,3.12.38.3.87,1.86,1.16,1.84,1.11,1.01,3.07-1.01,5.27.34.31.12,2.62,2.12,4.02,3.19.58.45-.07.21,1.26.74,1.9.06,3.45,2.36,1.24,4.99-.56.67-.19.36-1.15,1.6-.7.52-.43.39-.84.86l-3.43,5.03c.01.08-.33,1.45-.25,2.29.01.24-.1.47-.1.77.02.76-.41,2.09-.67,2.83l-.75,1.4-.86,1.15-1.07,1.37-.86,1.37c-.12.28-.23.18-.35.38-.07.06-.08.29-.34.27-.81-.07-1.74-.04-2.59.04-.35.09-.57.17-.87.33l-1.46.75c-.09.05-.12.06-.21.13l-.1.04-1.24.57c-.09.03-.13.03-.23.03-.43.08-.77.14-1.2.28-.12.06-.47.31-.54.39-.19.23-.35.46-.5.69l-.07.1-.26.92-.19,2.17-.25.79-.4.42-.69.37-.96.44c-.2.07-.34.22-.43.38l-.37.91-.12,1c-.07.45-.12,1.16-.2,1.35-.14.24-.37.37-.66.44-.36.08-.64.19-1.08.62l-.5.77c-.2.34-.35.7-.6,1.01-.35.4-.75.67-1.12,1.01.03.02-.64.5-.78.6-.24.18-.95.25-1.24.03,0,0-.13-.03-.3-.18-.17-.07-.49-.18-.71-.36-.04-.03-.25-.24-.33-.3l-18.63-15.56Z"></path><path class="cls-3" d="M245.69,72.95l-.21.91h-4.42l1.28-5.53h1.94l-1.07,4.61h2.48ZM237.87,71.46l-.3-1.86-1.22,1.86h1.51ZM240.31,73.86h-2.07l-.24-1.49h-2.25l-1.01,1.49h-.94l3.72-5.53h1.95l.84,5.53ZM232.02,69.56c.01-.06.02-.11.02-.14,0-.11-.07-.17-.24-.17h-1.14l-.3,1.3h1.14c.19,0,.31-.1.36-.3l.15-.68ZM233.97,69.56l-.25,1.06c-.13.56-.46.84-.98.84l.52,2.4h-2.13l-.38-2.4h-.6l-.55,2.4h-1.95l1.28-5.53h4.06c.69,0,1.03.25,1.03.75,0,.14-.01.3-.06.47ZM227.92,68.33l-.21.91h-2.85c-.25,0-.41.12-.46.35l-.69,3.01s-.02.08-.02.12c0,.15.1.23.32.23h.66c.25,0,.4-.12.45-.35l.26-1.14h-1.05l.22-.91h3l-.76,3.32h-1.57l.11-.5h-.01c-.1.18-.19.3-.28.37-.12.08-.31.13-.54.13h-1.76c-.65,0-.98-.32-.98-.95,0-.18.02-.37.07-.58l.57-2.46c.23-1.02.77-1.53,1.62-1.53h3.91ZM222.05,68.33l-.21.91h-2.48l-.3,1.3h2.27l-.21.91h-2.27l-.35,1.49h2.48l-.21.91h-4.42l1.28-5.53h4.42ZM216.96,68.33l-.22.91h-1.61l-1.06,4.61h-1.94l1.06-4.61h-1.61l.21-.91h5.18ZM211.1,68.33l-1.27,5.53h-2.53l-1.05-4.58h-.02l-1.05,4.58h-.85l1.28-5.53h2.55l1.03,4.5h.03l1.04-4.5h.85ZM204.73,68.33l-1.27,5.53h-1.95l1.28-5.53h1.94ZM195.44,71.46l-.3-1.86-1.21,1.86h1.51ZM197.88,73.86h-2.06l-.25-1.49h-2.24l-1.02,1.49h-.94l3.73-5.53h1.94l.84,5.53ZM192.03,68.33l-.22.91h-2.18c-.25,0-.41.12-.46.35l-.69,3.01s-.02.08-.02.12c0,.15.11.23.32.23h2.18l-.21.91h-3.25c-.65,0-.99-.32-.99-.95,0-.18.03-.37.08-.58l.57-2.46c.23-1.02.77-1.53,1.62-1.53h3.25ZM186.72,68.33l-1.28,5.53h-1.94l1.27-5.53h1.95ZM184.09,68.33l-.21.91h-1.61l-1.06,4.61h-1.95l1.06-4.61h-1.61l.22-.91h5.17ZM178.32,68.33l-.21.91h-2.69c-.23,0-.36.08-.39.23l-.09.36s0,.05,0,.07c0,.09.1.14.31.14h1.45c.69,0,1.04.25,1.04.75,0,.09-.02.2-.04.31l-.34,1.45c-.2.86-.68,1.3-1.45,1.3h-3.77l.21-.91h2.72c.2,0,.32-.08.37-.25l.09-.38s.01-.07.01-.09c0-.09-.09-.14-.29-.14h-1.67c-.55,0-.82-.22-.82-.66,0-.14.02-.3.06-.5l.31-1.32c.08-.36.24-.66.46-.89.24-.25.52-.38.87-.38h3.88ZM172.61,68.33l-1.28,5.53h-1.94l1.27-5.53h1.95ZM169.64,68.33l-.22.91h-2.85c-.25,0-.41.12-.46.35l-.69,3.01s-.02.08-.02.12c0,.15.11.23.32.23h.66c.25,0,.4-.12.45-.35l.26-1.14h-1.05l.22-.91h3l-.76,3.32h-1.57l.11-.5h-.02c-.09.18-.19.3-.28.37-.12.08-.31.13-.55.13h-1.76c-.65,0-.99-.32-.99-.95,0-.18.03-.37.08-.58l.57-2.46c.23-1.02.77-1.53,1.62-1.53h3.92ZM161.5,69.6s.01-.08.01-.12c0-.15-.11-.23-.32-.23h-.85c-.25,0-.41.12-.46.35l-.69,3.01s-.02.08-.02.12c0,.15.11.23.32.23h.85c.25,0,.41-.12.46-.35l.7-3.01ZM163.38,69.87l-.57,2.46c-.23,1.02-.77,1.53-1.61,1.53h-2.99c-.65,0-.98-.32-.98-.95,0-.18.02-.37.07-.58l.57-2.46c.23-1.02.77-1.53,1.62-1.53h2.99c.65,0,.97.31.97.94,0,.18-.01.37-.07.59ZM156.56,72.95l-.21.91h-4.42l1.27-5.53h1.95l-1.07,4.61h2.48Z"></path><path class="cls-3" d="M242.01,42.16c.06-.24.08-.45.08-.62,0-.78-.55-1.17-1.65-1.17h-4.36c-1.31,0-2.11.59-2.38,1.79l-3.58,15.6c-.05.24-.07.45-.07.62,0,.78.54,1.17,1.64,1.17h4.36c1.31,0,2.11-.59,2.38-1.79l3.58-15.6ZM251.71,43.55l-2.92,12.82c-1.2,5.29-3.98,7.93-8.31,7.93h-15.38c-3.38,0-5.06-1.64-5.06-4.93,0-.9.12-1.9.37-3.01l2.93-12.82c1.21-5.29,3.99-7.93,8.34-7.93h15.39c3.35,0,5.03,1.62,5.03,4.88,0,.9-.13,1.91-.37,3.05ZM221.69,35.62l-1.11,4.75h-11.23c-1.32,0-2.11.59-2.39,1.79l-3.57,15.6c-.06.24-.08.45-.08.62,0,.78.55,1.17,1.64,1.17h11.23l-1.07,4.75h-16.74c-3.37,0-5.06-1.64-5.06-4.93,0-.9.13-1.9.37-3.01l2.92-12.82c1.21-5.29,3.99-7.93,8.35-7.93h16.75ZM196.35,35.62l-14.52,18.06-2.43,10.62h-10.04l2.55-11.2-6.38-17.48h11.89l4.24,11.92,9.59-11.92h5.1ZM166.57,59.55l-1.07,4.75h-22.79l6.58-28.68h10.03l-5.51,23.93h12.75ZM126.3,51.84l-1.52-9.68-6.25,9.68h7.77ZM138.85,64.3h-10.66l-1.23-7.7h-11.56l-5.23,7.7h-4.86l19.17-28.68h10.04l4.32,28.68ZM108.7,35.62l-1.11,4.75h-11.23c-1.31,0-2.11.59-2.38,1.79l-3.58,15.6c-.06.24-.08.45-.08.62,0,.78.55,1.17,1.65,1.17h11.23l-1.07,4.75h-16.74c-3.37,0-5.06-1.64-5.06-4.93,0-.9.13-1.9.37-3.01l2.92-12.82c1.2-5.29,3.99-7.93,8.35-7.93h16.74Z"></path></svg>